<svg width="385" height="375" viewBox="0 0 385 375" fill="none" xmlns="http://www.w3.org/2000/svg">
<path d="M330.709 269.498L330.43 305.492C330.381 322.979 318.889 340.437 295.946 353.771C249.734 380.626 174.601 380.626 128.087 353.771C104.695 340.266 93.0046 322.528 93.0548 304.815L93.3337 268.82C93.2835 286.533 104.974 304.271 128.365 317.777C174.88 344.632 250.013 344.631 296.224 317.776C319.168 304.443 330.659 286.984 330.709 269.498Z" fill="url(#paint0_linear_1263_21158)"/>
<path d="M295.961 354.473C295.719 354.473 295.483 354.347 295.353 354.125C295.158 353.787 295.272 353.359 295.608 353.164C317.57 340.402 329.692 323.471 329.743 305.491L329.936 280.432C326.028 294.766 314.524 307.962 296.593 318.383C250.271 345.306 174.653 345.304 128.03 318.385C109.51 307.691 97.7468 294.114 93.9689 279.374L93.7726 304.819C93.7218 323.051 106.038 340.221 128.454 353.161C128.79 353.356 128.905 353.787 128.71 354.122C128.518 354.459 128.09 354.572 127.751 354.38C104.881 341.176 92.3153 323.573 92.3673 304.813L92.6459 268.814C92.6487 268.429 92.9629 268.117 93.3485 268.117C93.8124 268.146 94.0524 268.433 94.051 268.821C94.051 268.823 94.051 268.824 94.051 268.825V268.827C94.003 287.058 106.319 304.227 128.732 317.168C174.969 343.86 249.953 343.868 295.888 317.168C317.686 304.5 329.79 287.725 330.018 269.896L330.021 269.492C330.024 269.107 330.338 268.795 330.724 268.795C330.725 268.795 330.726 268.795 330.728 268.795C331.115 268.798 331.428 269.112 331.426 269.499C331.426 269.501 331.426 269.502 331.426 269.503V269.506C331.426 269.638 331.425 269.771 331.423 269.904L331.148 305.497C331.096 323.995 318.725 341.354 296.313 354.377C296.202 354.443 296.081 354.473 295.961 354.473Z" fill="black"/>
<path d="M330.715 269.483C330.821 231.513 277.766 200.583 212.213 200.4C146.659 200.216 93.4316 230.848 93.3253 268.819C93.219 306.789 146.274 337.719 211.828 337.903C277.381 338.086 330.609 307.454 330.715 269.483Z" fill="#182D57"/>
<path d="M212.426 338.569C181.903 338.569 151.344 331.839 128.032 318.38C105.242 305.222 92.676 287.679 92.6485 268.986C92.6224 250.424 104.993 233.003 127.483 219.934C173.805 193.014 249.423 193.01 296.047 219.932C318.837 233.089 331.403 250.629 331.43 269.32C331.456 287.885 319.086 305.308 296.596 318.378C273.435 331.839 242.949 338.569 212.426 338.569ZM211.654 201.128C181.383 201.128 151.159 207.8 128.189 221.149C106.152 233.957 94.0291 250.944 94.0538 268.983C94.0799 287.155 106.396 304.265 128.735 317.163C174.971 343.86 249.955 343.863 295.89 317.163C317.927 304.356 330.05 287.365 330.025 269.321C329.999 251.154 317.682 234.046 295.344 221.148C272.23 207.803 241.918 201.128 211.654 201.128Z" fill="#555CE4"/>
<path d="M112.726 334.674C112.725 334.674 112.723 334.674 112.722 334.674C112.334 334.671 112.021 334.356 112.023 333.969L112.144 312.894C112.147 312.507 112.461 312.195 112.847 312.195C112.848 312.195 112.85 312.195 112.851 312.195C113.239 312.198 113.552 312.514 113.549 312.902L113.429 333.974C113.426 334.361 113.112 334.674 112.726 334.674Z" fill="black"/>
<path d="M125.273 345.668C125.271 345.668 125.27 345.668 125.269 345.668C124.88 345.665 124.568 345.35 124.57 344.962L124.691 323.887C124.694 323.5 125.008 323.188 125.394 323.188C125.825 323.253 126.099 323.503 126.096 323.893L125.975 344.968C125.973 345.355 125.658 345.668 125.273 345.668Z" fill="black"/>
<path d="M137.82 352.868C137.818 352.868 137.817 352.868 137.816 352.868C137.427 352.865 137.115 352.55 137.117 352.163L137.237 331.091C137.239 330.704 137.554 330.391 137.939 330.391C137.941 330.391 137.942 330.391 137.943 330.391C138.332 330.393 138.644 330.709 138.642 331.096L138.522 352.168C138.52 352.555 138.205 352.868 137.82 352.868Z" fill="black"/>
<path d="M300.013 233.002L299.806 264.757C299.769 277.725 291.247 290.671 274.234 300.558C239.966 320.472 184.251 320.473 149.759 300.559C132.413 290.544 123.744 277.39 123.781 264.255L123.988 232.5C123.951 245.635 132.62 258.789 149.966 268.803C184.458 288.718 240.173 288.717 274.441 268.803C291.454 258.916 299.976 245.969 300.013 233.002Z" fill="url(#paint1_linear_1263_21158)"/>
<path d="M149.743 301.268C149.624 301.268 149.503 301.238 149.392 301.174C132.373 291.35 123.023 278.239 123.063 264.261L123.27 232.509C123.27 232.507 123.27 232.506 123.27 232.506V232.503C123.273 232.116 123.587 231.805 123.972 231.805C123.974 231.805 123.975 231.805 123.975 231.805C124.364 231.806 124.676 232.122 124.675 232.509C124.675 232.51 124.675 232.511 124.675 232.511V232.513C124.639 245.965 133.74 258.641 150.302 268.204C184.537 287.97 240.06 287.971 274.072 268.202C290.211 258.823 299.16 246.408 299.293 233.221L299.294 233.011C299.294 233.01 299.294 233.008 299.294 233.008V233.006C299.297 232.619 299.611 232.307 299.997 232.307C299.998 232.307 300 232.307 300 232.307C300.388 232.308 300.701 232.624 300.7 233.011C300.7 233.012 300.7 233.014 300.7 233.014V233.017C300.7 233.089 300.698 233.162 300.698 233.235L300.493 264.769C300.454 278.552 291.249 291.482 274.571 301.174C274.237 301.366 273.805 301.255 273.61 300.918C273.415 300.584 273.529 300.153 273.865 299.958C290.094 290.528 299.05 278.029 299.087 264.764L299.233 242.375C296.022 252.583 287.612 261.96 274.778 269.418C240.378 289.409 184.221 289.411 149.599 269.42C136.363 261.778 127.764 252.147 124.615 241.667L124.468 264.267C124.429 277.719 133.532 290.395 150.095 299.958C150.431 300.151 150.546 300.581 150.351 300.917C150.222 301.142 149.985 301.268 149.743 301.268Z" fill="black"/>
<path d="M299.998 232.995C300.077 204.838 260.734 181.902 212.123 181.766C163.513 181.63 124.042 204.345 123.963 232.502C123.884 260.659 163.227 283.595 211.838 283.731C260.449 283.867 299.919 261.152 299.998 232.995Z" fill="#555CE4"/>
<path d="M212.28 284.411C189.613 284.411 166.922 279.415 149.611 269.419C132.651 259.628 123.301 246.564 123.281 232.634C123.262 218.802 132.467 205.829 149.203 196.102C183.604 176.114 239.758 176.11 274.381 196.101C291.341 205.892 300.692 218.954 300.711 232.881C300.732 246.716 291.525 259.693 274.789 269.418C257.589 279.413 234.947 284.411 212.28 284.411ZM211.711 182.494C189.296 182.494 166.918 187.434 149.908 197.318C133.625 206.781 124.667 219.322 124.686 232.633C124.706 246.04 133.806 258.673 150.313 268.203C184.548 287.969 240.071 287.971 274.084 268.202C290.367 258.739 299.325 246.196 299.306 232.884C299.287 219.479 290.186 206.847 273.679 197.317C256.564 187.437 234.12 182.494 211.711 182.494Z" fill="black"/>
<g filter="url(#filter0_i_1263_21158)">
<path d="M272.877 232.93C272.931 213.45 245.713 197.582 212.083 197.488C178.452 197.394 151.145 213.109 151.091 232.589C151.036 252.068 178.255 267.936 211.885 268.03C245.515 268.124 272.822 252.409 272.877 232.93Z" fill="black"/>
</g>
<path d="M212.196 268.708C196.476 268.708 180.736 265.243 168.73 258.311C156.927 251.497 150.42 242.393 150.406 232.674C150.393 223.025 156.801 213.983 168.449 207.214C168.779 207.017 169.213 207.13 169.409 207.469C169.604 207.804 169.49 208.235 169.154 208.429C157.958 214.935 151.799 223.545 151.812 232.673C151.825 241.869 158.083 250.541 169.433 257.095C193.06 270.734 231.373 270.737 254.844 257.095C266.039 250.589 272.198 241.978 272.186 232.849C272.172 223.656 265.914 214.983 254.565 208.429C254.228 208.236 254.113 207.806 254.308 207.47C254.501 207.134 254.935 207.02 255.267 207.214C267.07 214.027 273.577 223.13 273.591 232.847C273.605 242.498 267.198 251.542 255.55 258.311C243.621 265.242 227.917 268.708 212.196 268.708Z" fill="black"/>
<path d="M138.351 281.525C137.902 281.556 137.646 281.208 137.648 280.818L137.738 265.191C137.74 264.804 138.055 264.492 138.44 264.492C138.442 264.492 138.443 264.492 138.444 264.492C138.833 264.495 139.145 264.811 139.143 265.199L139.054 280.826C139.051 281.213 138.737 281.525 138.351 281.525Z" fill="black"/>
<path d="M147.664 289.681C147.266 289.745 146.958 289.364 146.961 288.974L147.05 273.347C147.053 272.96 147.367 272.648 147.753 272.648C147.754 272.648 147.755 272.648 147.757 272.648C148.145 272.651 148.458 272.967 148.455 273.355L148.366 288.982C148.363 289.369 148.049 289.681 147.664 289.681Z" fill="black"/>
<path d="M156.968 295.018C156.967 295.018 156.965 295.018 156.964 295.018C156.576 295.015 156.263 294.7 156.266 294.311L156.355 278.683C156.358 278.296 156.672 277.984 157.057 277.984C157.4 278.05 157.763 278.3 157.76 278.691L157.671 294.32C157.668 294.707 157.354 295.018 156.968 295.018Z" fill="black"/>
<path d="M211.884 364.237C216.32 364.237 219.916 360.64 219.916 356.204C219.916 351.768 216.32 348.172 211.884 348.172C207.448 348.172 203.852 351.768 203.852 356.204C203.852 360.64 207.448 364.237 211.884 364.237Z" fill="#182D57"/>
<path d="M211.884 308.018C216.32 308.018 219.916 304.422 219.916 299.986C219.916 295.549 216.32 291.953 211.884 291.953C207.448 291.953 203.852 295.549 203.852 299.986C203.852 304.422 207.448 308.018 211.884 308.018Z" fill="#182D57"/>
<path d="M285.261 259.766L367.613 35.8828H61.4922L137.858 255.955C137.858 255.955 159.309 277.977 210.735 277.977C262.16 277.977 285.261 259.766 285.261 259.766Z" fill="url(#paint2_linear_1263_21158)"/>
<rect width="4.64364" height="31.1331" transform="matrix(0.866025 -0.5 0.866025 0.5 184.922 226.227)" fill="#B7BAF5"/>
<rect width="4.64364" height="31.1331" transform="matrix(0.866025 -0.5 0.866025 0.5 205.984 214.07)" fill="#B7BAF5"/>
<rect width="3.71491" height="28.9835" transform="matrix(0.866025 0.5 -0.866025 0.5 218.141 216.359)" fill="#B7BAF5"/>
<rect width="3.71491" height="28.9835" transform="matrix(0.866025 0.5 -0.866025 0.5 225.492 220.602)" fill="#B7BAF5"/>
<defs>
<filter id="filter0_i_1263_21158" x="141.742" y="197.484" width="131.133" height="82.1566" filterUnits="userSpaceOnUse" color-interpolation-filters="sRGB">
<feFlood flood-opacity="0" result="BackgroundImageFix"/>
<feBlend mode="normal" in="SourceGraphic" in2="BackgroundImageFix" result="shape"/>
<feColorMatrix in="SourceAlpha" type="matrix" values="0 0 0 0 0 0 0 0 0 0 0 0 0 0 0 0 0 0 127 0" result="hardAlpha"/>
<feOffset dx="-9.35168" dy="11.6097"/>
<feGaussianBlur stdDeviation="7.46262"/>
<feComposite in2="hardAlpha" operator="arithmetic" k2="-1" k3="1"/>
<feColorMatrix type="matrix" values="0 0 0 0 0.194807 0 0 0 0 0.261095 0 0 0 0 0.500751 0 0 0 0.9 0"/>
<feBlend mode="normal" in2="shape" result="effect1_innerShadow_1263_21158"/>
</filter>
<linearGradient id="paint0_linear_1263_21158" x1="93.0547" y1="360.776" x2="161.653" y2="218.478" gradientUnits="userSpaceOnUse">
<stop offset="0.389423" stop-color="#555CE4"/>
<stop offset="1" stop-color="#70FFF1"/>
</linearGradient>
<linearGradient id="paint1_linear_1263_21158" x1="123.781" y1="305.12" x2="180.051" y2="195.517" gradientUnits="userSpaceOnUse">
<stop offset="0.389423" stop-color="#555CE4"/>
<stop offset="1" stop-color="#70FFF1"/>
</linearGradient>
<linearGradient id="paint2_linear_1263_21158" x1="221.917" y1="264.66" x2="230.37" y2="-36.7144" gradientUnits="userSpaceOnUse">
<stop offset="0.264423" stop-color="#555CE4" stop-opacity="0.4"/>
<stop offset="0.682692" stop-color="#70FFF1" stop-opacity="0"/>
</linearGradient>
</defs>
</svg>
